<?xml version="1.0" encoding="utf-8"?><svg width="767" height="2462" viewBox="0 0 767 2462" fill="none" xmlns="http://www.w3.org/2000/svg">
<g clip-path="url(#clip0_2669_7744)">
<rect width="767" height="2462" fill="#EC0032"/>
<rect width="3175" height="841" transform="translate(-1083.47 -17.5679)" fill="#EB0033"/>
<path d="M612.294 -96.848L482.913 -171.546C474.632 -176.327 464.111 -173.47 459.332 -165.193L345.659 31.6956C340.88 39.973 343.741 50.4927 351.974 55.246L481.356 129.944C489.636 134.725 500.157 131.868 504.908 123.639L618.582 -73.2498C623.361 -81.5272 620.527 -92.0947 612.294 -96.848Z" fill="#FF3C6A"/>
<path d="M281.311 -64.6605L151.929 -139.359C143.648 -144.14 133.08 -141.31 128.329 -133.081L14.655 63.8076C9.87602 72.0851 12.7375 82.6047 21.0183 87.3856L150.4 162.084C158.681 166.865 169.249 164.035 174.001 155.806L287.646 -41.0346C292.425 -49.3121 289.564 -59.8317 281.283 -64.6126L281.311 -64.6605Z" fill="#FF0C37"/>
<path d="M312.784 106.108L412.536 163.7C416.7 166.104 418.138 171.463 415.679 175.722L377.53 241.798C375.099 246.008 369.712 247.491 365.547 245.087L265.795 187.494C261.63 185.09 260.193 179.731 262.652 175.473L300.801 109.397C303.232 105.186 308.619 103.703 312.784 106.108Z" fill="#FF0C37"/>
<path d="M716.846 186.798L587.464 112.099C579.184 107.318 568.615 110.148 563.864 118.378L450.19 315.266C445.411 323.543 448.273 334.063 456.553 338.844L585.935 413.542C594.216 418.323 604.784 415.494 609.536 407.264L723.182 210.424C727.961 202.146 725.099 191.627 716.818 186.846L716.846 186.798Z" fill="#FF0C37"/>
<path d="M357.542 344.392L228.161 269.693C219.88 264.912 209.359 267.77 204.58 276.047L90.9066 472.935C86.1277 481.213 88.9891 491.732 97.2221 496.486L226.604 571.184C234.884 575.965 245.405 573.108 250.156 564.878L363.83 367.99C368.609 359.712 365.775 349.145 357.542 344.392Z" fill="#FF3C6A"/>
<path d="M27.1643 375.527L-102.217 300.829C-110.498 296.048 -121.067 298.877 -125.818 307.107L-239.491 503.995C-244.27 512.273 -241.409 522.792 -233.128 527.573L-103.747 602.272C-95.4659 607.052 -84.8973 604.223 -80.1459 595.993L33.5276 399.105C38.3066 390.828 35.4451 380.308 27.1643 375.527Z" fill="#FF0C37"/>
<path d="M795.384 597.178L666.002 522.479C657.722 517.698 647.201 520.556 642.422 528.833L528.748 725.721C523.969 733.999 526.831 744.519 535.064 749.272L664.445 823.97C672.726 828.751 683.247 825.894 687.998 817.664L801.672 620.776C806.451 612.499 803.617 601.931 795.384 597.178Z" fill="#FF3C6A"/>
<path d="M462.705 626.985L333.324 552.286C325.043 547.505 314.474 550.335 309.723 558.564L196.05 755.453C191.271 763.73 194.132 774.25 202.413 779.031L331.794 853.729C340.075 858.51 350.644 855.68 355.395 847.451L469.069 650.563C473.848 642.285 470.986 631.765 462.705 626.985Z" fill="#FF0C37"/>
<path d="M898.287 878.468L768.906 803.769C760.625 798.989 750.056 801.818 745.305 810.048L631.632 1006.94C626.853 1015.21 629.714 1025.73 637.995 1030.51L767.376 1105.21C775.657 1109.99 786.226 1107.16 790.977 1098.93L904.651 902.046C909.43 893.768 906.568 883.249 898.287 878.468Z" fill="#FF0C37"/>
<path d="M748.508 357.678L848.261 415.27C852.425 417.674 853.862 423.033 851.404 427.292L813.255 493.368C810.824 497.578 805.436 499.061 801.272 496.657L701.519 439.065C697.355 436.66 695.918 431.301 698.376 427.043L736.525 360.967C738.956 356.756 744.344 355.273 748.508 357.678Z" fill="#FF0C37"/>
<path d="M58.4163 546.68L158.169 604.272C162.333 606.676 163.77 612.035 161.312 616.294L123.163 682.37C120.732 686.58 115.344 688.063 111.18 685.659L11.4276 628.067C7.26326 625.662 5.82608 620.303 8.28464 616.045L46.4336 549.969C48.8646 545.758 54.252 544.275 58.4163 546.68Z" fill="#FF0C37"/>
<path d="M494.149 798.248L593.901 855.841C598.066 858.245 599.503 863.604 597.044 867.862L558.895 933.938C556.464 938.149 551.077 939.632 546.913 937.227L447.16 879.635C442.996 877.231 441.559 871.872 444.017 867.614L482.166 801.538C484.597 797.327 489.984 795.844 494.149 798.248Z" fill="#FF0C37"/>
<path d="M587.599 477.212L426.626 384.275C419.877 380.378 411.271 382.682 407.376 389.428L346.354 495.121C342.459 501.868 344.766 510.473 351.516 514.369L512.489 607.307C519.238 611.204 527.844 608.899 531.739 602.153L592.76 496.46C596.655 489.714 594.348 481.109 587.599 477.212Z" fill="#DA0533"/>
<path d="M152.054 225.755L-8.91918 132.817C-15.6683 128.92 -24.2741 131.224 -28.1692 137.971L-89.191 243.664C-93.086 250.41 -90.7784 259.015 -84.0293 262.911L76.9436 355.849C83.6927 359.746 92.2986 357.442 96.1936 350.695L157.215 245.002C161.11 238.256 158.803 229.651 152.054 225.755Z" fill="#DA0533"/>
<path d="M860.212 27.1445L699.239 -65.7933C692.49 -69.6899 683.884 -67.3859 679.989 -60.6395L618.967 45.0534C615.072 51.7998 617.38 60.4047 624.129 64.3013L785.102 157.239C791.851 161.136 800.457 158.832 804.352 152.085L865.374 46.3923C869.269 39.646 866.961 31.0411 860.212 27.1445Z" fill="#DA0533"/>
<path d="M100.07 790.359L-29.3119 715.661C-37.5927 710.88 -48.1135 713.737 -52.8925 722.014L-166.566 918.903C-171.345 927.18 -168.484 937.7 -160.251 942.453L-30.8691 1017.15C-22.5883 1021.93 -12.0675 1019.08 -7.31615 1010.85L106.357 813.957C111.136 805.68 108.303 795.112 100.07 790.359Z" fill="#FF3C6A"/>
<path d="M537.902 1043.14L408.52 968.446C400.239 963.665 389.719 966.522 384.94 974.799L271.266 1171.69C266.487 1179.97 269.348 1190.48 277.581 1195.24L406.963 1269.94C415.244 1274.72 425.765 1271.86 430.516 1263.63L544.189 1066.74C548.968 1058.46 546.135 1047.9 537.902 1043.14Z" fill="#FF3C6A"/>
<path d="M204.615 1074L75.234 999.306C66.9532 994.525 56.3846 997.355 51.6332 1005.58L-62.0403 1202.47C-66.8193 1210.75 -63.9578 1221.27 -55.677 1226.05L73.7045 1300.75C81.9853 1305.53 92.5539 1302.7 97.3052 1294.47L210.951 1097.63C215.73 1089.35 212.869 1078.83 204.588 1074.05L204.615 1074Z" fill="#FF0C37"/>
<path d="M640.196 1325.49L510.814 1250.79C502.533 1246.01 491.965 1248.84 487.213 1257.07L373.54 1453.95C368.761 1462.23 371.622 1472.75 379.903 1477.53L509.285 1552.23C517.565 1557.01 528.134 1554.18 532.885 1545.95L646.531 1349.11C651.31 1340.83 648.449 1330.31 640.168 1325.53L640.196 1325.49Z" fill="#FF0C37"/>
<path d="M283.155 1484.38L153.774 1409.69C145.493 1404.9 134.972 1407.76 130.193 1416.04L16.5199 1612.93C11.7409 1621.2 14.6024 1631.72 22.8353 1636.48L152.217 1711.18C160.498 1715.96 171.018 1713.1 175.77 1704.87L289.443 1507.98C294.222 1499.7 291.388 1489.14 283.155 1484.38Z" fill="#FF3C6A"/>
<path d="M721.077 1737.22L591.696 1662.52C583.415 1657.74 572.894 1660.6 568.115 1668.87L454.442 1865.76C449.663 1874.04 452.524 1884.56 460.757 1889.31L590.139 1964.01C598.42 1968.79 608.94 1965.94 613.692 1957.71L727.365 1760.82C732.144 1752.54 729.31 1741.97 721.077 1737.22Z" fill="#FF3C6A"/>
<path d="M386.057 1765.67L256.675 1690.98C248.395 1686.19 237.826 1689.02 233.075 1697.25L119.401 1894.14C114.622 1902.42 117.484 1912.94 125.764 1917.72L255.146 1992.42C263.427 1997.2 273.995 1994.37 278.747 1986.14L392.42 1789.25C397.199 1780.97 394.338 1770.46 386.057 1765.67Z" fill="#FF0C37"/>
<path d="M813.815 2015.45L684.433 1940.75C676.152 1935.97 665.584 1938.8 660.832 1947.03L547.159 2143.92C542.38 2152.19 545.241 2162.71 553.522 2167.49L682.904 2242.19C691.185 2246.97 701.753 2244.14 706.504 2235.91L820.178 2039.03C824.957 2030.75 822.096 2020.23 813.815 2015.45Z" fill="#FF0C37"/>
<path d="M-18.0856 1685.45L81.6669 1743.05C85.8312 1745.45 87.2684 1750.81 84.8098 1755.07L46.6608 1821.14C44.2299 1825.35 38.8425 1826.84 34.6781 1824.43L-65.0744 1766.84C-69.2387 1764.44 -70.6759 1759.08 -68.2173 1754.82L-30.0683 1688.74C-27.6374 1684.53 -22.25 1683.05 -18.0856 1685.45Z" fill="#FF0C37"/>
<path d="M427.075 1942.46L526.827 2000.06C530.991 2002.46 532.429 2007.82 529.97 2012.08L491.821 2078.15C489.39 2082.36 484.003 2083.85 479.838 2081.44L380.086 2023.85C375.921 2021.45 374.484 2016.09 376.943 2011.83L415.092 1945.75C417.523 1941.54 422.91 1940.06 427.075 1942.46Z" fill="#FF0C37"/>
<path d="M515.591 1618.58L354.618 1525.64C347.869 1521.75 339.263 1524.05 335.368 1530.8L274.346 1636.49C270.451 1643.24 272.759 1651.84 279.508 1655.74L440.481 1748.68C447.23 1752.57 455.836 1750.27 459.731 1743.52L520.753 1637.83C524.648 1631.08 522.34 1622.48 515.591 1618.58Z" fill="#DA0533"/>
<path d="M936.954 1861.86L775.981 1768.92C769.232 1765.02 760.626 1767.33 756.731 1774.07L695.709 1879.77C691.814 1886.51 694.122 1895.12 700.871 1899.01L861.844 1991.95C868.593 1995.85 877.199 1993.54 881.094 1986.8L942.116 1881.1C946.011 1874.36 943.703 1865.75 936.954 1861.86Z" fill="#DA0533"/>
<path d="M75.3643 1364.42L-85.6086 1271.48C-92.3577 1267.58 -100.964 1269.89 -104.859 1276.64L-165.88 1382.33C-169.775 1389.07 -167.468 1397.68 -160.719 1401.58L0.254157 1494.51C7.00325 1498.41 15.6091 1496.11 19.5042 1489.36L80.526 1383.67C84.421 1376.92 82.1134 1368.32 75.3643 1364.42Z" fill="#DA0533"/>
<path d="M27.4914 1927.2L-101.89 1852.51C-110.171 1847.72 -120.692 1850.58 -125.471 1858.86L-239.144 2055.75C-243.923 2064.03 -241.062 2074.54 -232.829 2079.3L-103.447 2154C-95.1664 2158.78 -84.6456 2155.92 -79.8943 2147.69L33.7793 1950.8C38.5583 1942.52 35.7244 1931.96 27.4914 1927.2Z" fill="#FF3C6A"/>
<path d="M465.415 2180.04L336.034 2105.34C327.753 2100.56 317.232 2103.42 312.453 2111.69L198.78 2308.58C194.001 2316.86 196.862 2327.38 205.095 2332.13L334.477 2406.83C342.757 2411.61 353.278 2408.76 358.03 2400.53L471.703 2203.64C476.482 2195.36 473.648 2184.79 465.415 2180.04Z" fill="#FF3C6A"/>
<path d="M130.389 2208.49L1.00737 2133.8C-7.27343 2129.01 -17.842 2131.84 -22.5933 2140.07L-136.267 2336.96C-141.046 2345.24 -138.184 2355.76 -129.904 2360.54L-0.522134 2435.24C7.75867 2440.02 18.3273 2437.19 23.0786 2428.96L136.752 2232.07C141.531 2223.79 138.67 2213.27 130.389 2208.49Z" fill="#FF0C37"/>
<path d="M236.284 1244.88L336.036 1302.48C340.2 1304.88 341.638 1310.24 339.179 1314.5L301.03 1380.57C298.599 1384.78 293.212 1386.27 289.047 1383.86L189.295 1326.27C185.13 1323.87 183.693 1318.51 186.152 1314.25L224.301 1248.17C226.732 1243.96 232.119 1242.48 236.284 1244.88Z" fill="#FF0C37"/>
<path d="M681.438 1501.89L781.19 1559.49C785.355 1561.89 786.792 1567.25 784.333 1571.51L746.184 1637.58C743.753 1641.79 738.366 1643.28 734.202 1640.87L634.449 1583.28C630.285 1580.88 628.848 1575.52 631.306 1571.26L669.455 1505.18C671.886 1500.97 677.273 1499.49 681.438 1501.89Z" fill="#FF0C37"/>
<path d="M558.155 2458.27L428.773 2383.57C420.492 2378.79 409.924 2381.62 405.172 2389.85L291.499 2586.74C286.72 2595.01 289.581 2605.53 297.862 2610.31L427.244 2685.01C435.524 2689.79 446.093 2686.96 450.844 2678.73L564.518 2481.85C569.297 2473.57 566.435 2463.05 558.155 2458.27Z" fill="#FF0C37"/>
<path d="M171.41 2385.28L271.163 2442.88C275.327 2445.28 276.764 2450.64 274.306 2454.9L236.157 2520.97C233.726 2525.19 228.339 2526.67 224.174 2524.26L124.422 2466.67C120.257 2464.27 118.82 2458.91 121.279 2454.65L159.428 2388.57C161.859 2384.36 167.246 2382.88 171.41 2385.28Z" fill="#FF0C37"/>
<path d="M259.927 2061.4L98.9539 1968.46C92.2048 1964.57 83.5989 1966.87 79.7039 1973.62L18.6821 2079.31C14.787 2086.06 17.0946 2094.66 23.8437 2098.56L184.817 2191.5C191.566 2195.39 200.172 2193.09 204.067 2186.34L265.088 2080.65C268.983 2073.9 266.676 2065.3 259.927 2061.4Z" fill="#DA0533"/>
<path d="M681.292 2304.68L520.319 2211.74C513.57 2207.84 504.964 2210.15 501.069 2216.89L440.047 2322.59C436.152 2329.33 438.46 2337.94 445.209 2341.83L606.182 2434.77C612.931 2438.67 621.537 2436.36 625.432 2429.62L686.454 2323.92C690.349 2317.18 688.041 2308.57 681.292 2304.68Z" fill="#DA0533"/>
<path d="M788.2 1168.51L627.227 1075.58C620.478 1071.68 611.872 1073.98 607.977 1080.73L546.955 1186.42C543.06 1193.17 545.368 1201.77 552.117 1205.67L713.09 1298.61C719.839 1302.51 728.445 1300.2 732.34 1293.46L793.362 1187.76C797.257 1181.02 794.949 1172.41 788.2 1168.51Z" fill="#DA0533"/>
<path d="M347.982 914.352L187.009 821.414C180.259 817.517 171.654 819.821 167.759 826.568L106.737 932.26C102.842 939.007 105.149 947.612 111.898 951.508L272.871 1044.45C279.62 1048.34 288.226 1046.04 292.121 1039.29L353.143 933.599C357.038 926.853 354.731 918.248 347.982 914.352Z" fill="#DA0533"/>
<path d="M975.827 1295.98L846.446 1221.28C838.165 1216.5 827.644 1219.36 822.865 1227.64L709.192 1424.52C704.413 1432.8 707.274 1443.32 715.507 1448.07L844.889 1522.77C853.17 1527.55 863.69 1524.7 868.442 1516.47L982.115 1319.58C986.894 1311.3 984.06 1300.73 975.827 1295.98Z" fill="#DA0533"/>
<rect x="-1083" y="-22.9998" width="3193" height="2527" fill="url(#paint0_linear_2669_7744)"/>
</g>
<defs>
<linearGradient id="paint0_linear_2669_7744" x1="513.5" y1="-22.9998" x2="520.595" y2="2097.24" gradientUnits="userSpaceOnUse">
<stop stop-color="#EB0033"/>
<stop offset="1" stop-color="#EC0134" stop-opacity="0.31"/>
</linearGradient>
<clipPath id="clip0_2669_7744">
<rect width="767" height="2462" fill="white"/>
</clipPath>
</defs>
</svg>
